<svg width="18" height="18" viewBox="0 0 18 18" fill="none" xmlns="http://www.w3.org/2000/svg">
<path fill-rule="evenodd" clip-rule="evenodd" d="M8.1565 1.17519C8.39008 0.941604 8.7688 0.941604 9.00238 1.17519L11.993 4.16584C12.2266 4.39943 12.2266 4.77814 11.993 5.01173L9.00238 8.00238C8.7688 8.23596 8.39008 8.23596 8.1565 8.00238C7.92291 7.7688 7.92291 7.39008 8.1565 7.1565L10.216 5.09699C9.86713 5.06198 9.34592 5.03738 8.57944 5.03738C7.51475 5.03738 6.47397 5.3531 5.58871 5.94461C4.70345 6.53612 4.01347 7.37686 3.60603 8.36051C3.19859 9.34415 3.09199 10.4265 3.2997 11.4708C3.50741 12.515 4.02011 13.4742 4.77296 14.227C5.52581 14.9799 6.485 15.4926 7.52924 15.7003C8.57347 15.908 9.65585 15.8014 10.6395 15.394C11.6231 14.9865 12.4639 14.2965 13.0554 13.4113C13.6469 12.526 13.9626 11.4852 13.9626 10.4206C13.9626 10.0902 14.2304 9.82243 14.5607 9.82243C14.8911 9.82243 15.1589 10.0902 15.1589 10.4206C15.1589 11.7218 14.773 12.9939 14.05 14.0759C13.3271 15.1579 12.2995 16.0012 11.0973 16.4992C9.89505 16.9971 8.57214 17.1274 7.29586 16.8736C6.01957 16.6197 4.84723 15.9931 3.92708 15.0729C3.00692 14.1528 2.38029 12.9804 2.12643 11.7041C1.87256 10.4279 2.00285 9.10495 2.50083 7.90272C2.99881 6.70048 3.84212 5.67291 4.9241 4.94996C6.00608 4.227 7.27815 3.84112 8.57944 3.84112C9.17642 3.84112 9.64641 3.85552 10.0157 3.88031L8.1565 2.02107C7.92291 1.78749 7.92291 1.40877 8.1565 1.17519Z" fill="#ABAFBA"/>
</svg>
